# Blender 3.3.0
# www.blender.org
mtllib the_horse.mtl
o horse
v -0.106285 -3.323081 3.175276
v 0.189180 -4.475695 2.784053
v 0.291487 -3.836944 3.470770
v 0.417856 -3.680791 5.379892
v 0.895022 -3.422391 5.597135
v 0.313083 -3.531179 6.050025
v 0.938248 -1.477521 3.140541
v 0.909070 -1.203795 3.456978
v 1.085965 -2.179380 3.463711
v -0.376172 -2.736554 3.550676
v -0.317596 -2.496498 3.945479
v -0.371242 -2.231653 3.481589
v 0.383797 -2.724260 6.368674
v 0.407462 -2.468789 6.186860
v -0.104891 -2.622511 6.370712
v -0.108700 -1.321697 3.105579
v -0.194728 -1.079487 3.490966
v -0.013812 -0.747361 3.224160
v 0.220221 -1.983905 5.877704
v 0.079447 -1.389247 6.302824
v 0.030192 -1.855434 6.151053
v -0.182706 -1.341572 6.143568
v -0.331475 -1.902171 5.908488
v 0.519860 -0.340623 3.326818
v 0.507126 -1.012253 3.533342
v 0.647309 -0.324947 3.563450
v 0.761749 -2.125233 3.633858
v 0.774824 -1.024778 3.612865
v 0.726290 -3.179929 2.801535
v 0.907910 -2.691222 2.775390
v 1.039035 -3.000018 3.239364
v 0.689672 -1.450018 6.333116
v 0.677308 -0.443818 6.284855
v 0.571036 -1.178278 6.283397
v 0.722760 -1.339639 3.098051
v 0.696503 -0.722684 3.216202
v -0.095835 -1.767818 5.359925
v 0.151261 -2.216884 5.325928
v -0.173837 -2.316133 5.136020
v 0.568677 -0.506664 6.033085
v 0.695132 -0.378254 5.904649
v 0.732296 -1.198171 5.852408
v 0.480314 -1.374398 6.056909
v 0.072979 -1.017899 6.275237
v 0.235515 -1.335833 5.994339
v 0.159253 -0.431494 6.044512
v 0.659613 -4.409158 1.792788
v 0.620691 -3.802106 2.004638
v 0.656110 -4.182830 2.281646
v 0.058626 -4.450866 2.182027
v 0.346313 -3.818967 2.177120
v 0.100167 -3.823575 2.019216
v 0.051131 -4.415498 1.780317
v 1.077628 -3.019135 5.792016
v 0.785954 -3.364146 4.836475
v 0.955510 -2.747745 5.118654
v 0.020264 -1.203720 5.863896
v 0.668356 -4.704029 1.970042
v 0.901443 -1.346478 6.144008
v -0.148264 -0.773389 6.049670
v 0.919281 -0.677508 3.431867
v 0.079705 -3.432802 3.965300
v 0.642818 -3.421774 3.980227
v 0.474967 -3.792001 3.460094
v 0.836767 -0.316448 3.338075
v 0.674286 -0.398183 3.055209
v 0.853529 -0.254882 3.147672
v 0.225924 -3.734203 1.795043
v 0.215425 -3.616991 1.611778
v 0.204925 -3.499779 1.428512
v 0.219472 -3.773259 1.339497
v -0.018434 -0.256891 3.038830
v -0.174903 -0.686097 3.477135
v -0.162137 -0.325310 3.346120
v 0.147628 -0.239779 3.127960
v 0.244251 -1.017007 3.510071
v 0.088258 -1.394449 3.178985
v 1.110444 -2.378095 3.029287
v -0.394944 -2.241009 3.040605
v -0.031425 -3.185191 2.819641
v 0.080691 -0.300921 3.528600
v -0.058549 0.000000 3.455354
v 0.109312 -1.925457 2.850950
v -0.054235 -1.720408 2.875236
v -0.344121 -3.119034 5.784691
v 0.137085 -3.312717 6.248740
v 0.360383 -2.096305 2.704398
v 0.546233 -1.806826 2.942313
v 0.793316 -2.073934 2.813557
v -0.189274 -1.459676 3.519487
v 0.077249 -1.007747 3.589897
v 0.224978 -4.749775 1.943522
v 0.310128 -4.689269 1.798804
v 0.973300 0.000000 5.789289
v 0.544106 0.000000 5.703851
v 0.534327 0.000000 6.154652
v 0.699134 0.000000 3.379971
v 0.150229 -2.776438 6.898690
v 0.261140 -2.993398 6.499969
v 0.296966 -3.482607 6.475097
v 0.857171 -0.360743 6.009169
v 0.847028 -0.777957 6.060616
v 0.742487 -2.225320 5.014071
v 0.857924 -2.241371 5.150235
v 0.931118 0.000000 3.302848
v 0.924640 0.000000 2.988044
v 0.693492 0.000000 2.733370
v -0.210888 -3.011383 5.103388
v -0.114506 -3.305226 4.633056
v 0.221735 -1.770665 3.323881
v 0.263755 -2.555912 2.513043
v 0.711338 -1.894464 6.169053
v 0.844415 -2.700689 6.355546
v 0.670115 -0.241122 2.993359
v 0.491530 0.000000 3.063762
v 0.824630 -3.315462 3.197009
v 0.232973 0.000000 5.968336
v -0.060730 -0.374828 5.922958
v 0.373972 -3.000321 6.929615
v 0.535072 -2.717607 6.900974
v 0.667361 -1.949440 4.421174
v 0.362583 -3.022034 2.572871
v 0.007552 -1.962780 4.333911
v 0.550728 -1.871457 3.497983
v -0.031278 -2.003865 3.637093
v 0.478517 -4.517670 2.842181
v 0.360188 -4.324596 1.553456
v 0.574483 -3.305521 6.256296
v -0.149573 -0.119254 3.203817
v -0.232337 0.000000 3.161599
v 0.533625 -1.604302 6.523746
v 0.355160 -2.144391 6.793463
v 0.053061 0.000000 2.744380
v 0.264867 0.000000 3.349020
v 1.097818 -2.436481 5.346111
v 0.964532 -1.382908 5.982035
v 0.001129 -0.460899 6.277358
v 0.114226 0.000000 6.217461
v -0.076958 -3.495680 5.363664
v -0.004693 0.000000 5.584643
v 0.143341 -0.426965 3.406323
v 0.849687 0.000000 6.237721
v 0.448430 -2.198482 5.650953
v 0.352716 -1.650509 6.795259
v 0.344610 -3.458119 4.372908
v 1.000749 -3.087770 4.444134
v -0.212554 0.000000 6.198185
v 0.063885 -4.983923 1.891237
v 0.505590 -1.965065 5.897280
v -0.360467 -2.384995 5.287848
v 0.965679 -2.362871 3.705230
v 0.543963 -3.169876 6.609219
v 0.471585 -2.529995 6.465019
v 0.488783 -1.657610 6.342440
v 0.485498 -2.223381 6.591632
v 0.222477 -2.133030 6.568128
v 1.059294 -1.745037 5.754180
v 0.370190 -1.697045 6.333474
v 0.509072 -3.739365 1.298631
v -0.243976 -1.417838 5.893584
v 0.739730 -1.720765 5.392559
v 0.652990 -4.982172 1.882485
v 0.486454 -4.728456 1.928069
v 0.507625 -3.744447 1.744249
v 0.519558 -3.499337 1.432086
v 0.513591 -3.621892 1.588168
v 0.223609 -4.761600 2.194938
v 1.082279 -2.733559 3.678751
v 0.506434 -4.754943 2.159260
v -0.277687 0.000000 5.847629
v 0.294553 -2.421240 6.135796
v 0.197364 -1.591846 6.515474
v 0.542101 -3.504954 1.697519
v -0.048236 -2.238776 5.050810
v 0.243553 -3.512974 1.707055
v 0.255359 -1.657829 6.343846
vn -0.8107 -0.3636 0.4590
vn 0.3671 -0.8940 0.2570
vn 0.9821 0.1776 -0.0631
vn -0.9911 0.0275 0.1303
vn 0.1217 0.5680 0.8140
vn -0.9128 0.2216 -0.3431
vn 0.7204 -0.2824 0.6335
vn -0.5265 -0.2061 0.8248
vn -0.8737 0.1580 0.4601
vn 0.4661 0.0113 0.8846
vn 0.8268 -0.3316 -0.4543
vn -0.3029 0.0419 0.9521
vn 0.3064 0.1916 -0.9324
vn 0.4140 0.2930 -0.8618
vn -0.7184 0.0118 -0.6955
vn -0.9512 0.1048 0.2902
vn 0.8877 0.0495 0.4577
vn 0.9970 0.0733 -0.0268
vn -0.5266 0.2461 0.8137
vn -0.9971 0.0725 0.0250
vn 0.9591 -0.1555 -0.2366
vn 0.5571 0.0928 -0.8253
vn 0.9996 0.0266 -0.0051
vn 0.6533 0.0443 0.7558
vn -0.4886 0.1710 0.8556
vn 0.6997 -0.0476 -0.7128
vn -0.8640 -0.4847 0.1361
vn 0.8243 -0.5518 0.1267
vn 0.6981 -0.0264 -0.7156
vn 0.6212 -0.3137 -0.7181
vn -0.0000 -0.5774 0.8165
vn -0.9981 -0.0593 0.0192
vn 0.9469 -0.3208 -0.0204
vn -0.8868 -0.1297 -0.4436
vn 0.5346 -0.3184 -0.7828
vn 0.8050 0.1667 -0.5694
vn 0.8811 -0.2390 -0.4081
vn -0.9115 -0.2806 -0.3007
vn -0.5937 -0.0798 0.8007
vn 0.4845 0.4736 -0.7355
vn -0.7188 -0.3574 0.5963
vn 0.1763 0.5550 -0.8130
vn -0.3562 0.0648 0.9322
vn -0.5722 -0.5804 -0.5794
vn -0.0000 1.0000 -0.0000
vn -0.8280 0.3700 0.4214
vn -0.9696 -0.0589 -0.2376
vn 0.8298 0.0484 0.5560
vn 0.7602 0.1853 -0.6227
vn -0.8481 -0.1943 -0.4930
vn -0.2857 -0.1152 -0.9514
vn -0.0402 0.9986 0.0336
vn -0.9803 0.0286 -0.1953
vn -0.9316 -0.3618 0.0351
vn 0.8498 0.1024 -0.5171
vn 0.2138 0.3368 -0.9170
vn -0.2312 0.4150 -0.8800
vn -0.8600 -0.2728 -0.4312
vn -0.2730 0.1738 0.9462
vn 0.8947 -0.0995 0.4354
vn -0.9313 -0.2778 -0.2356
vn -0.7693 -0.4325 -0.4703
vn -0.9497 0.3017 -0.0843
vn 0.9580 -0.2866 -0.0083
vn 0.9923 -0.0012 -0.1235
vn 0.8213 -0.5669 0.0647
vn 0.4255 -0.2273 -0.8760
vn 0.6594 0.1677 -0.7328
vn -0.0233 0.1139 0.9932
vn 0.7665 0.0158 0.6420
vn -0.3532 0.0506 0.9342
vn 0.9195 0.3877 0.0639
vn 0.4516 -0.2142 -0.8661
vn -0.2317 0.9718 -0.0444
vn 0.6826 0.2167 -0.6979
vn -0.6193 0.4488 -0.6443
vn 0.9311 0.2177 -0.2926
vn 0.1989 -0.6348 0.7466
vn -0.4327 -0.4616 -0.7744
vn 0.4327 -0.8278 0.3572
vn 0.5965 -0.7946 0.1134
vn -0.9176 0.3946 -0.0484
vn -0.4560 -0.2078 -0.8654
vn -0.8693 -0.2009 -0.4516
vn -0.7943 -0.3849 0.4699
vn -0.5352 -0.2098 0.8182
vn 0.4166 0.2922 0.8608
vn 0.9324 -0.1548 -0.3266
vn 0.4744 -0.3072 -0.8249
vn 0.7054 0.1787 -0.6859
vn -0.8407 0.0233 -0.5410
vn 0.7068 -0.2144 0.6741
vn 0.8703 -0.2835 0.4027
vn 0.8277 -0.1322 0.5454
vn 0.9260 -0.3425 -0.1590
vn -0.9603 -0.2780 -0.0231
vn -0.3507 -0.9242 0.1515
vn 0.7282 -0.5160 -0.4511
vn -0.5908 -0.7489 0.3001
vn 0.9710 0.1913 0.1436
vn 0.8408 -0.2772 0.4650
vn -0.9459 0.2215 0.2373
vn 0.1213 0.9925 0.0142
vn 0.2373 0.9652 0.1103
vn 0.8320 0.0021 0.5547
vn 0.2415 -0.8997 0.3636
vn 0.6063 -0.2774 -0.7453
vn 0.9018 -0.3585 0.2412
vn -0.3161 0.0835 0.9450
vn -0.9920 0.0530 0.1150
vn 0.9257 -0.0684 -0.3721
vn 0.8829 0.1498 0.4450
vn -0.7627 -0.1008 0.6388
vn 0.1785 -0.4048 -0.8968
vn 0.9017 -0.3389 0.2687
vn -0.0325 0.1744 0.9841
vn -0.4990 0.3113 -0.8088
vn 0.3673 0.8546 -0.3670
vn 0.8168 0.1032 0.5677
vn 0.7390 0.2380 0.6302
vn -0.7572 -0.6516 0.0457
vn -0.3763 0.4408 -0.8149
vn -0.8032 -0.2519 0.5398
vn -0.0065 0.5802 0.8144
vn -0.9987 -0.0508 0.0022
vn -0.8069 -0.1860 0.5607
vn -0.9624 -0.1666 -0.2145
vn 0.9355 -0.2346 -0.2642
vn 0.8999 -0.0780 0.4290
vn 0.7655 0.6414 -0.0515
vn -0.5898 -0.5020 0.6326
vn 0.9731 0.0487 -0.2253
vn 0.5339 -0.1280 -0.8358
vn 0.9854 0.0638 0.1578
vn -0.9663 -0.0231 -0.2562
vn 0.9977 0.0163 0.0665
vn -0.8437 -0.0887 0.5294
vn -0.6650 0.3615 -0.6535
vn 0.1405 -0.1377 -0.9805
vn -0.0856 -0.3794 -0.9213
vn 0.4858 -0.6393 0.5961
vn -0.8596 0.0265 -0.5103
vn 0.3749 -0.7417 -0.5561
vn -0.5220 0.0225 0.8527
vn -0.0504 0.8201 0.5700
vn 0.1699 -0.9847 0.0379
vn -0.9667 0.1802 0.1819
vn 0.8293 0.1541 0.5372
vn 0.7974 -0.0584 0.6006
vn -0.7632 0.1221 -0.6346
vn 0.3155 0.0116 0.9489
vn -0.2497 0.1977 0.9479
vn 0.1787 0.2864 -0.9413
vn -0.0346 -0.1857 0.9820
vn -0.7310 0.4449 -0.5174
vn -0.7746 -0.0307 -0.6317
vn 0.9598 -0.2801 -0.0197
vn -0.6781 -0.1926 0.7092
vn 0.9990 -0.0452 0.0027
vn -0.5000 0.7071 0.5000
vn 0.5112 -0.5541 -0.6570
vn 0.6013 0.3341 -0.7258
vn -0.5952 0.3274 -0.7339
vn -0.7171 0.3217 -0.6183
vn 0.9297 0.3166 -0.1881
vn -0.5930 0.2933 0.7499
vn -0.8732 -0.4565 0.1705
vn -0.0105 0.9988 -0.0469
vn -0.7680 -0.4303 -0.4744
vn -0.8972 -0.3742 -0.2346
vn 0.9332 0.2772 0.2288
vn 0.9115 0.4026 0.0842
vn 0.4765 -0.4501 -0.7552
vn -0.9984 0.0170 0.0533
vn -0.8352 -0.5499 0.0092
vn -0.8679 -0.4699 0.1612
vn 0.4506 0.5883 0.6714
vn 0.9398 -0.1086 -0.3241
vn -0.2583 -0.9600 0.1083
vn 0.9809 0.1916 -0.0323
vn 0.8259 -0.5633 -0.0220
vn -0.3353 -0.9157 -0.2215
vn 0.8699 0.2680 -0.4141
vn -0.6436 -0.0694 -0.7622
vn -0.5561 0.3178 0.7679
vn -0.9762 0.1457 -0.1606
vn -0.8501 -0.2632 -0.4561
vn 0.2924 0.3517 0.8893
vn -0.7617 -0.3852 -0.5210
vn -0.2373 -0.6934 0.6803
vn 0.6879 0.2694 0.6740
vn 0.0142 0.7473 0.6644
vn -0.4493 0.0622 0.8912
vn 0.8238 -0.3651 0.4336
vn -0.9217 0.1326 0.3646
vn 0.8338 0.3787 0.4016
vn 0.4576 0.4908 -0.7414
vn 0.9923 -0.1219 -0.0237
vn 0.3990 0.3643 -0.8414
vn -0.8162 -0.5665 0.1135
vn 0.7325 -0.3588 0.5785
vn 0.1634 0.8758 0.4542
vn 0.6461 0.4302 -0.6304
vn -0.4626 0.2895 0.8380
vn 0.4309 0.1775 0.8848
vn 0.9986 0.0129 0.0504
vn -0.6089 -0.4794 -0.6320
vn -0.9307 -0.1320 0.3411
vn 0.9408 0.2745 0.1991
vn -0.9727 0.2270 0.0475
vn -0.8446 0.2626 -0.4667
vn -0.9336 -0.3038 0.1899
vn 0.9835 -0.1585 -0.0869
vn 0.6016 0.2167 -0.7689
vn -0.8820 0.4587 0.1080
vn 0.7181 0.3241 0.6159
vn -0.3970 -0.9018 -0.1705
vn -0.0318 0.9956 0.0881
vn -0.7879 0.3340 0.5173
vn 0.8690 -0.4898 0.0704
vn 0.4276 -0.5393 -0.7255
vn -0.6432 0.7636 -0.0564
vn -0.1062 0.3503 -0.9306
vn -0.7015 -0.3466 0.6227
vn -0.4944 0.7189 -0.4886
vn 0.7691 -0.2302 0.5962
vn 0.0176 -0.9987 -0.0469
vn 0.9850 0.0759 -0.1551
vn 0.2179 0.8951 0.3889
vn -0.4804 0.8304 0.2823
vn -0.5942 -0.7285 0.3409
vn 0.8010 0.2119 0.5599
vn 0.3866 0.1248 -0.9137
vn -0.7969 -0.5924 -0.1186
vn 0.0736 -0.9901 -0.1198
vn -0.8748 -0.0061 0.4845
vn 0.7533 0.4103 -0.5140
vn -0.6450 0.0701 -0.7610
vn -0.7584 0.1030 -0.6437
vn -0.6484 0.0452 -0.7600
vn -0.7664 -0.1755 -0.6179
vn -0.2840 0.0159 0.9587
vn -0.7216 0.2698 -0.6376
vn -0.8819 -0.4708 -0.0250
vn 0.6621 0.4117 -0.6262
vn -0.7867 0.3929 -0.4761
vn 0.7028 0.3902 -0.5948
vn 0.4160 0.5600 0.7165
vn 0.7316 -0.6774 -0.0767
vn 0.0638 -0.9419 0.3299
vn -0.9732 0.0937 0.2099
vn 0.4900 -0.5633 -0.6653
vn -0.9106 0.4133 -0.0036
vn -0.9248 -0.3799 -0.0201
vn -0.0583 0.1427 0.9880
vn 0.3695 -0.0408 -0.9283
vn 0.4328 0.9014 0.0117
vn -0.0285 0.9339 0.3563
vn -0.6300 0.6408 0.4387
vn -0.9793 -0.0291 -0.2003
vn -0.2119 -0.8840 0.4166
vn -0.9806 0.1348 0.1424
vn 0.9330 0.1381 0.3324
vn -0.6904 0.0416 0.7223
vn 0.5023 0.1102 -0.8577
vn -0.9806 0.1744 -0.0899
vn -0.8596 0.5107 0.0178
vn 0.5935 0.1638 0.7880
vn 0.3973 0.1299 -0.9085
vn 0.7863 -0.0499 -0.6159
vn 0.6585 0.5166 -0.5472
vn 0.4231 -0.8777 -0.2249
vn -0.0532 0.9655 0.2550
vn -0.8906 -0.1623 0.4248
vn 0.7332 -0.4156 0.5383
vn 0.5198 -0.8429 -0.1391
vn 0.7921 -0.4894 -0.3647
vn -0.7719 0.4231 0.4745
vn 0.9828 0.1137 -0.1453
vn 0.5792 -0.6230 -0.5257
vn -0.5889 0.0692 -0.8052
vn -0.5905 -0.7505 0.2967
vn -0.3878 0.0857 0.9177
vn 0.6875 0.4852 -0.5403
vn -0.9777 0.2077 0.0300
vn -0.7339 -0.2664 0.6248
vn 0.4126 -0.5468 -0.7286
vn 0.2579 -0.4921 -0.8314
vn -0.9593 0.2145 0.1838
vn 0.9954 -0.0406 0.0872
vn 0.9470 0.3185 -0.0405
vn -0.1674 0.2971 -0.9401
vn -0.9158 -0.0312 0.4003
vn -0.3700 0.8831 0.2883
vn 0.6744 -0.6678 0.3150
vn 0.2917 0.9217 -0.2558
vn -0.4532 -0.4207 -0.7859
vn 0.5776 -0.7635 0.2889
vn 0.0092 0.4856 -0.8741
vn 0.5344 0.0778 -0.8416
vn 0.9536 -0.1468 0.2629
vn 0.4334 0.0758 0.8980
vn 0.5579 -0.7505 0.3542
vn 0.8632 -0.4649 0.1970
vn -0.3190 0.2676 -0.9092
vn -0.9991 0.0061 0.0419
vn 0.7843 -0.1701 0.5966
vn 0.7800 0.6241 -0.0458
vn -0.2867 -0.0539 0.9565
vn 0.9408 0.2080 0.2677
vn 0.4092 -0.2303 0.8829
vn -0.3997 0.8901 0.2190
vn 0.0693 0.9799 0.1869
vn -0.5596 0.6132 -0.5575
vn 0.0371 -0.1779 0.9833
vn 0.0549 -0.9323 -0.3575
vn 0.7888 -0.5856 -0.1870
vn 0.7161 -0.5387 0.4438
vn 0.0317 0.9816 0.1882
vn -0.7919 -0.5963 -0.1320
vn 0.9285 0.0244 0.3705
vn -0.8781 0.0537 -0.4754
vn 0.6299 0.3351 -0.7006
vn -0.0016 0.9998 0.0213
vn -0.0252 0.9984 0.0508
vn 0.0198 0.3681 0.9296
vn 0.1808 0.1632 0.9699
vn 0.9724 -0.0988 -0.2115
vn -0.9316 -0.0778 -0.3550
vn -0.2953 0.9339 -0.2015
vn -0.1285 -0.1157 -0.9849
vn 0.0442 0.8825 -0.4681
vn 0.9962 0.0604 -0.0632
vn -0.9788 -0.0279 -0.2027
vn -0.9530 -0.0728 -0.2940
vn 0.1210 -0.1405 -0.9827
s 0
f 1//1 2//1 3//1
f 4//2 5//2 6//2
f 7//3 8//3 9//3
f 10//4 11//4 12//4
f 13//5 14//5 15//5
f 16//6 17//6 18//6
f 19//7 20//7 21//7
f 21//8 22//8 23//8
f 24//9 25//9 26//9
f 27//10 9//10 28//10
f 29//11 30//11 31//11
f 32//12 33//12 34//12
f 35//13 36//13 7//13
f 37//14 38//14 39//14
f 40//15 41//15 42//15
f 34//16 40//16 43//16
f 44//17 45//17 46//17
f 47//18 48//18 49//18
f 50//19 51//19 52//19
f 50//20 52//20 53//20
f 54//21 55//21 56//21
f 45//22 57//22 46//22
f 58//23 47//23 49//23
f 32//24 59//24 33//24
f 22//25 20//25 60//25
f 61//26 8//26 36//26
f 62//27 10//27 1//27
f 63//28 64//28 31//28
f 65//29 61//29 36//29
f 66//30 67//30 36//30
f 68//31 69//31 70//31
f 70//32 71//32 68//32
f 65//33 36//33 67//33
f 72//34 73//34 74//34
f 75//35 76//35 18//35
f 76//36 77//36 18//36
f 30//37 78//37 31//37
f 1//38 79//38 80//38
f 74//39 81//39 82//39
f 83//40 84//40 77//40
f 15//41 85//41 86//41
f 87//42 88//42 89//42
f 90//43 91//43 17//43
f 92//44 53//44 93//44
f 94//45 95//45 96//45
f 97//46 24//46 26//46
f 98//47 99//47 100//47
f 101//48 33//48 102//48
f 56//49 103//49 104//49
f 72//50 18//50 73//50
f 105//45 106//45 107//45
f 84//51 83//51 79//51
f 51//52 48//52 52//52
f 1//53 80//53 50//53
f 108//54 10//54 109//54
f 77//55 76//55 110//55
f 89//56 111//56 87//56
f 83//57 87//57 111//57
f 66//58 36//58 24//58
f 112//59 14//59 113//59
f 45//60 20//60 19//60
f 79//61 1//61 10//61
f 114//62 115//62 107//62
f 16//63 79//63 90//63
f 105//64 65//64 67//64
f 19//65 38//65 45//65
f 31//66 64//66 116//66
f 117//67 46//67 118//67
f 78//68 30//68 89//68
f 119//69 120//69 98//69
f 8//70 61//70 28//70
f 17//71 91//71 73//71
f 56//72 121//72 103//72
f 122//73 30//73 29//73
f 123//74 124//74 125//74
f 78//75 89//75 7//75
f 35//76 88//76 25//76
f 83//77 77//77 110//77
f 126//78 64//78 3//78
f 93//79 53//79 127//79
f 6//80 5//80 128//80
f 128//81 100//81 6//81
f 99//82 13//82 86//82
f 80//83 111//83 122//83
f 114//84 66//84 24//84
f 129//85 82//85 130//85
f 22//86 21//86 20//86
f 120//87 131//87 132//87
f 75//88 133//88 134//88
f 72//89 75//89 18//89
f 104//90 135//90 56//90
f 18//91 17//91 73//91
f 32//92 112//92 59//92
f 136//93 59//93 112//93
f 137//94 46//94 138//94
f 5//95 55//95 54//95
f 139//96 108//96 109//96
f 6//97 139//97 4//97
f 117//98 118//98 140//98
f 6//99 86//99 85//99
f 141//100 76//100 75//100
f 33//101 101//101 142//101
f 129//102 74//102 82//102
f 103//103 143//103 104//103
f 124//104 88//104 110//104
f 131//105 144//105 132//105
f 64//106 145//106 3//106
f 114//107 67//107 66//107
f 146//108 56//108 55//108
f 81//109 73//109 91//109
f 11//110 10//110 108//110
f 117//45 140//45 147//45
f 101//111 102//111 42//111
f 102//112 33//112 59//112
f 60//113 44//113 137//113
f 94//114 41//114 95//114
f 116//115 126//115 58//115
f 98//116 120//116 132//116
f 79//117 83//117 111//117
f 110//118 87//118 83//118
f 137//119 44//119 46//119
f 97//120 26//120 65//120
f 86//121 6//121 100//121
f 50//122 92//122 148//122
f 43//123 32//123 34//123
f 13//124 113//124 14//124
f 124//125 25//125 88//125
f 149//126 32//126 43//126
f 108//127 85//127 150//127
f 135//128 54//128 56//128
f 138//129 46//129 117//129
f 121//130 151//130 27//130
f 98//131 100//131 119//131
f 82//45 134//45 133//45
f 49//132 29//132 116//132
f 152//133 153//133 154//133
f 154//134 155//134 152//134
f 99//135 98//135 156//135
f 135//136 157//136 54//136
f 100//137 99//137 86//137
f 150//138 37//138 39//138
f 153//139 99//139 158//139
f 127//140 71//140 159//140
f 119//141 100//141 152//141
f 147//142 118//142 60//142
f 75//143 72//143 133//143
f 27//144 28//144 124//144
f 124//145 110//145 125//145
f 147//45 138//45 117//45
f 63//146 55//146 145//146
f 160//147 23//147 22//147
f 28//148 9//148 8//148
f 110//149 91//149 125//149
f 161//150 104//150 143//150
f 97//151 65//151 105//151
f 96//152 33//152 142//152
f 162//153 163//153 58//153
f 15//154 86//154 13//154
f 42//155 161//155 43//155
f 118//156 57//156 60//156
f 105//157 67//157 106//157
f 147//158 60//158 137//158
f 164//159 159//159 165//159
f 165//160 166//160 164//160
f 114//161 106//161 67//161
f 49//162 122//162 29//162
f 50//163 80//163 122//163
f 51//164 50//164 122//164
f 36//165 8//165 7//165
f 73//166 81//166 74//166
f 50//167 167//167 2//167
f 143//168 103//168 38//168
f 114//169 24//169 115//169
f 85//170 108//170 139//170
f 151//171 121//171 168//171
f 168//172 121//172 56//172
f 47//173 127//173 159//173
f 12//174 79//174 10//174
f 169//175 163//175 162//175
f 170//176 118//176 147//176
f 27//177 151//177 9//177
f 131//178 120//178 155//178
f 109//179 62//179 145//179
f 9//180 78//180 7//180
f 92//181 167//181 148//181
f 109//182 4//182 139//182
f 58//183 49//183 116//183
f 111//184 80//184 79//184
f 15//185 21//185 23//185
f 71//186 53//186 52//186
f 129//187 72//187 74//187
f 82//188 81//188 134//188
f 115//45 105//45 107//45
f 130//45 82//45 133//45
f 133//189 72//189 130//189
f 126//190 3//190 2//190
f 113//191 157//191 112//191
f 171//192 15//192 14//192
f 90//193 12//193 125//193
f 116//194 64//194 126//194
f 33//195 40//195 34//195
f 21//196 171//196 19//196
f 84//197 16//197 77//197
f 31//198 78//198 168//198
f 89//199 35//199 7//199
f 62//200 1//200 3//200
f 119//201 152//201 120//201
f 14//202 143//202 171//202
f 57//203 45//203 37//203
f 132//204 172//204 98//204
f 21//205 15//205 171//205
f 78//206 9//206 168//206
f 118//207 170//207 140//207
f 149//208 43//208 143//208
f 141//209 75//209 81//209
f 79//210 12//210 90//210
f 43//211 161//211 143//211
f 2//212 1//212 50//212
f 166//213 165//213 173//213
f 102//214 136//214 42//214
f 174//215 123//215 11//215
f 61//216 65//216 26//216
f 4//217 109//217 145//217
f 124//218 123//218 121//218
f 24//219 97//219 115//219
f 134//220 81//220 75//220
f 127//221 47//221 163//221
f 68//222 71//222 52//222
f 115//45 97//45 105//45
f 35//223 89//223 88//223
f 148//224 167//224 50//224
f 110//225 88//225 87//225
f 162//226 58//226 169//226
f 92//227 169//227 167//227
f 38//228 19//228 171//228
f 121//229 38//229 103//229
f 123//230 174//230 38//230
f 145//231 62//231 3//231
f 142//45 94//45 96//45
f 9//232 151//232 168//232
f 77//233 16//233 18//233
f 109//234 10//234 62//234
f 140//45 170//45 147//45
f 163//235 169//235 92//235
f 132//236 144//236 172//236
f 135//237 104//237 161//237
f 108//238 150//238 39//238
f 41//239 40//239 96//239
f 43//240 40//240 42//240
f 24//241 36//241 25//241
f 26//242 25//242 28//242
f 16//243 84//243 79//243
f 50//244 53//244 92//244
f 38//245 37//245 45//245
f 150//246 160//246 37//246
f 135//247 161//247 157//247
f 51//248 49//248 48//248
f 55//249 63//249 146//249
f 169//250 126//250 167//250
f 22//251 60//251 160//251
f 94//252 101//252 41//252
f 99//253 153//253 13//253
f 95//254 41//254 96//254
f 138//255 147//255 137//255
f 30//256 122//256 111//256
f 48//257 159//257 164//257
f 68//258 52//258 48//258
f 12//259 11//259 125//259
f 17//260 16//260 90//260
f 2//261 167//261 126//261
f 69//262 175//262 70//262
f 136//263 102//263 59//263
f 20//264 44//264 60//264
f 46//265 57//265 118//265
f 160//266 150//266 23//266
f 125//267 11//267 123//267
f 26//268 28//268 61//268
f 111//269 89//269 30//269
f 153//270 152//270 13//270
f 157//271 161//271 136//271
f 4//272 145//272 55//272
f 38//273 121//273 123//273
f 96//274 40//274 33//274
f 128//275 54//275 113//275
f 5//276 4//276 55//276
f 29//277 31//277 116//277
f 14//278 112//278 149//278
f 47//279 159//279 48//279
f 106//280 114//280 107//280
f 174//281 108//281 39//281
f 6//282 85//282 139//282
f 90//283 125//283 91//283
f 42//284 136//284 161//284
f 14//285 149//285 143//285
f 149//286 112//286 32//286
f 127//287 163//287 93//287
f 20//17 45//17 44//17
f 58//288 163//288 47//288
f 174//289 11//289 108//289
f 146//290 168//290 56//290
f 128//291 13//291 152//291
f 71//292 70//292 159//292
f 15//293 23//293 85//293
f 171//294 143//294 38//294
f 128//295 152//295 100//295
f 172//296 158//296 176//296
f 53//297 71//297 127//297
f 169//298 58//298 126//298
f 165//299 159//299 70//299
f 101//300 42//300 41//300
f 142//301 101//301 94//301
f 91//302 76//302 81//302
f 63//303 145//303 64//303
f 63//304 31//304 168//304
f 60//305 57//305 160//305
f 85//306 23//306 150//306
f 157//307 136//307 112//307
f 121//308 27//308 124//308
f 124//309 28//309 25//309
f 81//310 76//310 141//310
f 110//311 76//311 91//311
f 174//312 39//312 38//312
f 164//313 68//313 48//313
f 57//314 37//314 160//314
f 13//315 128//315 113//315
f 92//316 93//316 163//316
f 168//317 146//317 63//317
f 5//318 54//318 128//318
f 131//319 172//319 144//319
f 72//320 129//320 130//320
f 54//321 157//321 113//321
f 36//322 35//322 25//322
f 49//323 51//323 122//323
f 70//324 173//324 165//324
f 175//325 173//325 70//325
f 164//213 166//213 173//213
f 68//262 175//262 69//262
f 175//326 68//326 173//326
f 68//327 164//327 173//327
f 155//328 154//328 131//328
f 156//329 98//329 172//329
f 154//330 158//330 131//330
f 176//331 158//331 99//331
f 158//332 172//332 131//332
f 155//333 120//333 152//333
f 176//334 99//334 156//334
f 156//335 172//335 176//335
f 154//336 153//336 158//336
